<svg xmlns="http://www.w3.org/2000/svg" viewBox="0 0 500 500"><g fill="#FFF"><path d="M37.3 263.8l-5.2-11.4c-28.8-62.9-15.4-138 33.4-187l4.1 4.1-4.1-4.1c31.3-31.3 73-48.5 117.4-48.5 44.4 0 86.1 17.2 117.4 48.5l-8.1 8.1c-29.2-29-68-45-109.4-45s-80.1 16-109.2 45.1c-42.5 42.6-56.2 106.6-35.7 162.7 7.5-13.4 16.7-25.6 27.6-36.5L94 171.3c2.6-19.6 11.6-38 25.5-51.9 35-34.9 91.9-34.9 126.9 0l99.3 99.2-8.2 8.1-99.2-99.2c-30.5-30.4-80.1-30.4-110.6 0-12.5 12.5-20.5 29.2-22.4 47l-.2 2L73.6 208c-12.9 12.9-23.3 27.8-31.1 44.5l-5.2 11.3zm335.5-9.7l-8.2-8.1 7.7-7.8c16.7-16.7 24.9-39.8 22.4-63.6l11.4-1.2c2.8 27.2-6.5 53.8-25.7 73l-7.6 7.7zm-55.7 229c-44.4 0-86-17.2-117.3-48.6l8.1-8.1c29.1 29.1 67.9 45.2 109.2 45.2s80.1-16.1 109.2-45.2c42.6-42.5 56.3-106.5 35.8-162.6-7.4 13.3-16.7 25.6-27.6 36.5l-8.1-8.1c13-13 23.5-28 31.1-44.5l5.2-11.4 5.2 11.4c28.9 63 15.5 138.1-33.4 186.9-31.3 31.2-73 48.5-117.4 48.5"/><path d="M93.7 326.7c-2.9-27.2 6.5-53.8 25.7-72.9l7.8-7.8 8.1 8.1-7.8 7.8c-16.7 16.7-24.9 39.9-22.4 63.6l-11.4 1.2zm223.4 80.1c-23 0-45.9-8.7-63.4-26.2l8.1-8.1c30.5 30.4 80.1 30.4 110.6 0 12.7-12.8 20.5-29 22.4-47l.2-2 31.3-31.3 8.1 8.1-28.4 28.4c-2.5 19.8-11.3 37.7-25.4 51.9-17.5 17.5-40.5 26.2-63.5 26.2m-71.2-271.4l-7.8-7.8c-14.7-14.7-34.3-22.8-55.2-22.8-2.8 0-5.6.1-8.4.4l-1.2-11.4c3.2-.3 6.4-.5 9.6-.5 24 0 46.5 9.3 63.3 26.2l7.8 7.8-8.1 8.1z"/><path d="M183.2 483c-43.3 0-86-16.8-117.7-48.5-31.3-31.2-48.6-72.9-48.6-117.3 0-44.4 17.2-86.1 48.6-117.4l8.1 8.1C44.5 237 28.4 275.8 28.4 317.2c0 41.3 16.1 80 45.2 109.1 42.6 42.6 106.6 56.2 162.6 35.7-13.4-7.5-25.6-16.7-36.4-27.6L171.3 406c-19.8-2.6-37.7-11.3-51.9-25.5-16.9-16.9-26.2-39.4-26.2-63.4s9.3-46.5 26.2-63.4l8.1 8.1c-14.7 14.7-22.9 34.4-22.9 55.3s8.1 40.6 22.9 55.3c12.8 12.7 29 20.5 47 22.4l2 .2 31.4 31.3c12.8 12.9 27.8 23.4 44.4 31.1l11.4 5.2-11.4 5.2c-22 10.3-45.7 15.2-69.1 15.2m251.3-182.7l-8.1-8.1c29.2-29.2 45.3-68 45.3-109.3s-16.1-80.1-45.3-109.3c-29-29.1-67.8-45.1-109.2-45.1-22.2 0-44.6 4.9-64.7 14.1l-4.8-10.5c21.6-9.9 45.6-15.2 69.5-15.2h.1c44.4 0 86.1 17.2 117.3 48.5 31.4 31.3 48.6 73 48.6 117.4-.1 44.5-17.4 86.2-48.7 117.5M317 406.8c-23.7 0-46.3-9.2-63.3-26.2l-7.8-7.8 8.2-8.1 7.8 7.8c16.8 16.7 40 24.8 63.6 22.3l1.2 11.5c-3.3.3-6.5.5-9.7.5"/><path d="M380.6 246.3l-8.1-8.1c30.5-30.5 30.5-80.1 0-110.6-12.7-12.7-28.9-20.5-47-22.3l-2-.2-31.3-31.4c-12.9-12.9-27.9-23.3-44.5-31l4.8-10.5c17.8 8.2 33.9 19.4 47.8 33.3L328.7 94c19.9 2.5 37.8 11.3 51.9 25.4 34.9 35 34.9 91.9 0 126.9m-63.5 160.5c-23 0-45.9-8.7-63.4-26.2l-99.5-99.5 8.1-8.1 99.5 99.5c30.5 30.4 80.1 30.4 110.6 0 8.1-8.1 14.2-17.6 18-28.1l-7.2 7.2c-15.3 15.3-31.1 24-47 25.7-19.5 2.2-38.7-6-56.9-24.3l-98.6-98.6 8.1-8.1 98.6 98.6c15.7 15.7 31.7 22.8 47.5 21 13.2-1.5 26.7-9 40.2-22.4l32.8-32.9-1.7 16.2c-2.2 20.6-11 39.2-25.7 53.9-17.4 17.4-40.4 26.1-63.4 26.1M135.4 254.1l-8.2-8.1 26.6-26.6 8.1 8.1-26.5 26.6z"/><path d="M189.5 407.9l-16.2-1.7c-20.6-2.1-39.2-11-53.9-25.6-35-35-35-91.9 0-126.9L220 153.2l8.1 8.2-100.5 100.5c-30.5 30.5-30.5 80.1 0 110.6 8.1 8.1 17.7 14.2 28.1 18l-7.1-7.1c-34.5-34.6-35-70.5-1.5-104.1l99.4-99.4 8.1 8.1-99.4 99.4c-29 29-28.5 57.7 1.5 87.8l32.8 32.7zm83.07-245.914l-26.61-26.568 8.125-8.139 26.61 26.569z"/><path d="M311.1 252.1l-97.6-97.8c-28.9-29-57.7-28.5-87.8 1.4L104.5 177l-8.2-8.1 21.3-21.3c34.6-34.4 70.6-34.9 104.1-1.4l97.6 97.8-8.2 8.1z"/><path d="M276.6 350.3l-34.7-34.8 102.9-102.9c15.7-15.7 22.7-31.7 21-47.5-1.5-13.2-9-26.8-22.5-40.1l-32.8-32.8 16.1 1.7c20.7 2.2 39.3 11 53.9 25.7 35 35 35 91.9 0 126.9L276.6 350.3zm-18.5-34.8l18.5 18.5 95.8-95.8c30.5-30.5 30.5-80.1 0-110.6a78.38 78.38 0 00-28.2-18.1l7.3 7.3c15.3 15.3 24 31.1 25.8 47 2.2 19.5-6 38.6-24.3 56.9l-94.9 94.8z"/></g></svg>